<?xml version="1.0" ?><!DOCTYPE svg  PUBLIC '-//W3C//DTD SVG 1.1//EN'  'http://www.w3.org/Graphics/SVG/1.1/DTD/svg11.dtd'><svg width="64px" height="64px" viewBox="0 0 64 64" enable-background="new 0 0 64 64" version="1.1" xml:space="preserve" xmlns="http://www.w3.org/2000/svg" xmlns:xlink="http://www.w3.org/1999/xlink"><g id="_x31_-smartphone"/><g id="_x32_-smartTV"/><g id="_x33_-telepon"/><g id="_x34_-computer"/><g id="_x35_-kalkulator"/><g id="_x36_-radio"/><g id="_x37_-hadset"><path d="M55.979,31C55.541,15.471,44.956,3,32,3S8.459,15.471,8.021,31H3v22h8h9V31h-9h-0.979C10.452,16.574,20.143,5,32,5   s21.548,11.574,21.979,26H53h-9v22h7v6H40v-5h-9v7h5h4h13v-8h8V31H55.979z M18,33v18h-5V33H18z M11,51H5V33h6V51z M36,59h-3v-3h5v3   H36z M46,51V33h5v18H46z M59,51h-6V33h6V51z"/></g><g id="_x38_-usbflashdisk"/><g id="_x39_-camera"/><g id="_x31_0-printer"/><g id="_x31_1-powerbank"/><g id="_x31_2-kulkas"/><g id="_x31_3-modem"/><g id="_x31_4-tablet"/><g id="_x31_5-gamebot"/><g id="_x31_6-wasing_machine"/><g id="_x31_7-handdryer"/><g id="_x31_8-blender"/><g id="_x31_9-controller"/><g id="_x32_0-michrophone"/><g id="_x32_1-lamp"/></svg>